solid ascii
  facet normal -4.669162e-016 1.000000e+000 0.000000e+000
    outer loop
      vertex   5.350000e+000 2.498002e-015 0.000000e+000
      vertex   0.000000e+000 0.000000e+000 0.000000e+000
      vertex   5.350000e+000 2.498002e-015 5.000000e+000
    endloop
  endfacet
  facet normal -4.669162e-016 1.000000e+000 0.000000e+000
    outer loop
      vertex   5.350000e+000 2.498002e-015 5.000000e+000
      vertex   0.000000e+000 0.000000e+000 0.000000e+000
      vertex   0.000000e+000 0.000000e+000 5.000000e+000
    endloop
  endfacet
  facet normal 1.000000e+000 2.089252e-016 0.000000e+000
    outer loop
      vertex   0.000000e+000 0.000000e+000 0.000000e+000
      vertex   -1.195052e-014 5.720000e+001 0.000000e+000
      vertex   0.000000e+000 0.000000e+000 5.000000e+000
    endloop
  endfacet
  facet normal 1.000000e+000 2.089252e-016 -0.000000e+000
    outer loop
      vertex   0.000000e+000 0.000000e+000 5.000000e+000
      vertex   -1.195052e-014 5.720000e+001 0.000000e+000
      vertex   -1.195052e-014 5.720000e+001 5.000000e+000
    endloop
  endfacet
  facet normal 0.000000e+000 -1.000000e+000 0.000000e+000
    outer loop
      vertex   -1.195052e-014 5.720000e+001 0.000000e+000
      vertex   2.070000e+001 5.720000e+001 0.000000e+000
      vertex   -1.195052e-014 5.720000e+001 5.000000e+000
    endloop
  endfacet
  facet normal 0.000000e+000 -1.000000e+000 0.000000e+000
    outer loop
      vertex   -1.195052e-014 5.720000e+001 5.000000e+000
      vertex   2.070000e+001 5.720000e+001 0.000000e+000
      vertex   2.070000e+001 5.720000e+001 5.000000e+000
    endloop
  endfacet
  facet normal -1.000000e+000 0.000000e+000 0.000000e+000
    outer loop
      vertex   2.070000e+001 5.720000e+001 0.000000e+000
      vertex   2.070000e+001 3.802528e-015 0.000000e+000
      vertex   2.070000e+001 5.720000e+001 5.000000e+000
    endloop
  endfacet
  facet normal -1.000000e+000 -0.000000e+000 0.000000e+000
    outer loop
      vertex   2.070000e+001 5.720000e+001 5.000000e+000
      vertex   2.070000e+001 3.802528e-015 0.000000e+000
      vertex   2.070000e+001 3.802528e-015 5.000000e+000
    endloop
  endfacet
  facet normal -2.957163e-016 1.000000e+000 -7.670686e-019
    outer loop
      vertex   1.535000e+001 2.220446e-015 5.000000e+000
      vertex   2.070000e+001 3.802528e-015 5.000000e+000
      vertex   1.535000e+001 2.216611e-015 0.000000e+000
    endloop
  endfacet
  facet normal -2.964332e-016 1.000000e+000 0.000000e+000
    outer loop
      vertex   1.535000e+001 2.216611e-015 0.000000e+000
      vertex   2.070000e+001 3.802528e-015 5.000000e+000
      vertex   2.070000e+001 3.802528e-015 0.000000e+000
    endloop
  endfacet
  facet normal 0.000000e+000 -0.000000e+000 -1.000000e+000
    outer loop
      vertex   1.535000e+001 2.216611e-015 0.000000e+000
      vertex   2.070000e+001 3.802528e-015 0.000000e+000
      vertex   1.535000e+001 -1.600000e+000 0.000000e+000
    endloop
  endfacet
  facet normal 0.000000e+000 0.000000e+000 -1.000000e+000
    outer loop
      vertex   1.535000e+001 -1.600000e+000 0.000000e+000
      vertex   2.070000e+001 3.802528e-015 0.000000e+000
      vertex   2.230000e+001 -1.600000e+000 0.000000e+000
    endloop
  endfacet
  facet normal 0.000000e+000 0.000000e+000 -1.000000e+000
    outer loop
      vertex   2.230000e+001 -1.600000e+000 0.000000e+000
      vertex   2.070000e+001 3.802528e-015 0.000000e+000
      vertex   2.070000e+001 5.720000e+001 0.000000e+000
    endloop
  endfacet
  facet normal -0.000000e+000 0.000000e+000 -1.000000e+000
    outer loop
      vertex   2.230000e+001 5.880000e+001 0.000000e+000
      vertex   2.070000e+001 5.720000e+001 0.000000e+000
      vertex   -1.195052e-014 5.720000e+001 0.000000e+000
    endloop
  endfacet
  facet normal 0.000000e+000 -0.000000e+000 -1.000000e+000
    outer loop
      vertex   -1.600000e+000 5.880000e+001 0.000000e+000
      vertex   -1.195052e-014 5.720000e+001 0.000000e+000
      vertex   -1.600000e+000 -1.600000e+000 0.000000e+000
    endloop
  endfacet
  facet normal 0.000000e+000 -0.000000e+000 -1.000000e+000
    outer loop
      vertex   -1.600000e+000 5.880000e+001 0.000000e+000
      vertex   2.230000e+001 5.880000e+001 0.000000e+000
      vertex   -1.195052e-014 5.720000e+001 0.000000e+000
    endloop
  endfacet
  facet normal 0.000000e+000 0.000000e+000 -1.000000e+000
    outer loop
      vertex   2.230000e+001 -1.600000e+000 0.000000e+000
      vertex   2.070000e+001 5.720000e+001 0.000000e+000
      vertex   2.230000e+001 5.880000e+001 0.000000e+000
    endloop
  endfacet
  facet normal 0.000000e+000 -0.000000e+000 -1.000000e+000
    outer loop
      vertex   -1.195052e-014 5.720000e+001 0.000000e+000
      vertex   0.000000e+000 0.000000e+000 0.000000e+000
      vertex   -1.600000e+000 -1.600000e+000 0.000000e+000
    endloop
  endfacet
  facet normal 0.000000e+000 0.000000e+000 -1.000000e+000
    outer loop
      vertex   -1.600000e+000 -1.600000e+000 0.000000e+000
      vertex   0.000000e+000 0.000000e+000 0.000000e+000
      vertex   5.350000e+000 -1.600000e+000 0.000000e+000
    endloop
  endfacet
  facet normal 0.000000e+000 0.000000e+000 -1.000000e+000
    outer loop
      vertex   5.350000e+000 -1.600000e+000 0.000000e+000
      vertex   0.000000e+000 0.000000e+000 0.000000e+000
      vertex   5.350000e+000 2.498002e-015 0.000000e+000
    endloop
  endfacet
  facet normal -1.000000e+000 0.000000e+000 0.000000e+000
    outer loop
      vertex   1.535000e+001 2.216611e-015 0.000000e+000
      vertex   1.535000e+001 -1.600000e+000 0.000000e+000
      vertex   1.535000e+001 2.220446e-015 5.000000e+000
    endloop
  endfacet
  facet normal -1.000000e+000 -0.000000e+000 0.000000e+000
    outer loop
      vertex   1.535000e+001 2.220446e-015 5.000000e+000
      vertex   1.535000e+001 -1.600000e+000 0.000000e+000
      vertex   1.535000e+001 -1.600000e+000 5.000000e+000
    endloop
  endfacet
  facet normal 1.000000e+000 0.000000e+000 -0.000000e+000
    outer loop
      vertex   5.350000e+000 -1.600000e+000 0.000000e+000
      vertex   5.350000e+000 2.498002e-015 0.000000e+000
      vertex   5.350000e+000 -1.600000e+000 5.000000e+000
    endloop
  endfacet
  facet normal 1.000000e+000 -0.000000e+000 0.000000e+000
    outer loop
      vertex   5.350000e+000 -1.600000e+000 5.000000e+000
      vertex   5.350000e+000 2.498002e-015 0.000000e+000
      vertex   5.350000e+000 2.498002e-015 5.000000e+000
    endloop
  endfacet
  facet normal 4.606771e-012 -1.000000e+000 0.000000e+000
    outer loop
      vertex   -1.600000e+000 -1.600000e+000 0.000000e+000
      vertex   5.350000e+000 -1.600000e+000 0.000000e+000
      vertex   -1.600000e+000 -1.600000e+000 5.000000e+000
    endloop
  endfacet
  facet normal 4.606771e-012 -1.000000e+000 0.000000e+000
    outer loop
      vertex   -1.600000e+000 -1.600000e+000 5.000000e+000
      vertex   5.350000e+000 -1.600000e+000 0.000000e+000
      vertex   5.350000e+000 -1.600000e+000 5.000000e+000
    endloop
  endfacet
  facet normal -1.000000e+000 5.296720e-013 0.000000e+000
    outer loop
      vertex   -1.600000e+000 5.880000e+001 0.000000e+000
      vertex   -1.600000e+000 -1.600000e+000 0.000000e+000
      vertex   -1.600000e+000 5.880000e+001 5.000000e+000
    endloop
  endfacet
  facet normal -1.000000e+000 5.296720e-013 0.000000e+000
    outer loop
      vertex   -1.600000e+000 5.880000e+001 5.000000e+000
      vertex   -1.600000e+000 -1.600000e+000 0.000000e+000
      vertex   -1.600000e+000 -1.600000e+000 5.000000e+000
    endloop
  endfacet
  facet normal 0.000000e+000 1.000000e+000 -0.000000e+000
    outer loop
      vertex   2.230000e+001 5.880000e+001 0.000000e+000
      vertex   -1.600000e+000 5.880000e+001 0.000000e+000
      vertex   2.230000e+001 5.880000e+001 5.000000e+000
    endloop
  endfacet
  facet normal 0.000000e+000 1.000000e+000 -0.000000e+000
    outer loop
      vertex   2.230000e+001 5.880000e+001 5.000000e+000
      vertex   -1.600000e+000 5.880000e+001 0.000000e+000
      vertex   -1.600000e+000 5.880000e+001 5.000000e+000
    endloop
  endfacet
  facet normal 1.000000e+000 -5.881976e-017 0.000000e+000
    outer loop
      vertex   2.230000e+001 -1.600000e+000 0.000000e+000
      vertex   2.230000e+001 5.880000e+001 0.000000e+000
      vertex   2.230000e+001 -1.600000e+000 5.000000e+000
    endloop
  endfacet
  facet normal 1.000000e+000 -5.881976e-017 0.000000e+000
    outer loop
      vertex   2.230000e+001 -1.600000e+000 5.000000e+000
      vertex   2.230000e+001 5.880000e+001 0.000000e+000
      vertex   2.230000e+001 5.880000e+001 5.000000e+000
    endloop
  endfacet
  facet normal 6.389773e-017 -1.000000e+000 0.000000e+000
    outer loop
      vertex   1.535000e+001 -1.600000e+000 0.000000e+000
      vertex   2.230000e+001 -1.600000e+000 0.000000e+000
      vertex   1.535000e+001 -1.600000e+000 5.000000e+000
    endloop
  endfacet
  facet normal 6.389773e-017 -1.000000e+000 0.000000e+000
    outer loop
      vertex   1.535000e+001 -1.600000e+000 5.000000e+000
      vertex   2.230000e+001 -1.600000e+000 0.000000e+000
      vertex   2.230000e+001 -1.600000e+000 5.000000e+000
    endloop
  endfacet
  facet normal -0.000000e+000 0.000000e+000 1.000000e+000
    outer loop
      vertex   1.535000e+001 2.220446e-015 5.000000e+000
      vertex   1.535000e+001 -1.600000e+000 5.000000e+000
      vertex   2.070000e+001 3.802528e-015 5.000000e+000
    endloop
  endfacet
  facet normal -0.000000e+000 0.000000e+000 1.000000e+000
    outer loop
      vertex   2.070000e+001 3.802528e-015 5.000000e+000
      vertex   1.535000e+001 -1.600000e+000 5.000000e+000
      vertex   2.230000e+001 -1.600000e+000 5.000000e+000
    endloop
  endfacet
  facet normal -0.000000e+000 0.000000e+000 1.000000e+000
    outer loop
      vertex   2.070000e+001 5.720000e+001 5.000000e+000
      vertex   2.230000e+001 -1.600000e+000 5.000000e+000
      vertex   2.230000e+001 5.880000e+001 5.000000e+000
    endloop
  endfacet
  facet normal -0.000000e+000 0.000000e+000 1.000000e+000
    outer loop
      vertex   -1.600000e+000 5.880000e+001 5.000000e+000
      vertex   2.070000e+001 5.720000e+001 5.000000e+000
      vertex   2.230000e+001 5.880000e+001 5.000000e+000
    endloop
  endfacet
  facet normal -0.000000e+000 0.000000e+000 1.000000e+000
    outer loop
      vertex   -1.600000e+000 5.880000e+001 5.000000e+000
      vertex   -1.195052e-014 5.720000e+001 5.000000e+000
      vertex   2.070000e+001 5.720000e+001 5.000000e+000
    endloop
  endfacet
  facet normal -0.000000e+000 0.000000e+000 1.000000e+000
    outer loop
      vertex   -1.600000e+000 5.880000e+001 5.000000e+000
      vertex   -1.600000e+000 -1.600000e+000 5.000000e+000
      vertex   -1.195052e-014 5.720000e+001 5.000000e+000
    endloop
  endfacet
  facet normal -0.000000e+000 0.000000e+000 1.000000e+000
    outer loop
      vertex   -1.195052e-014 5.720000e+001 5.000000e+000
      vertex   -1.600000e+000 -1.600000e+000 5.000000e+000
      vertex   0.000000e+000 0.000000e+000 5.000000e+000
    endloop
  endfacet
  facet normal -0.000000e+000 0.000000e+000 1.000000e+000
    outer loop
      vertex   0.000000e+000 0.000000e+000 5.000000e+000
      vertex   -1.600000e+000 -1.600000e+000 5.000000e+000
      vertex   5.350000e+000 -1.600000e+000 5.000000e+000
    endloop
  endfacet
  facet normal 0.000000e+000 0.000000e+000 1.000000e+000
    outer loop
      vertex   5.350000e+000 2.498002e-015 5.000000e+000
      vertex   0.000000e+000 0.000000e+000 5.000000e+000
      vertex   5.350000e+000 -1.600000e+000 5.000000e+000
    endloop
  endfacet
  facet normal -0.000000e+000 -0.000000e+000 1.000000e+000
    outer loop
      vertex   2.070000e+001 3.802528e-015 5.000000e+000
      vertex   2.230000e+001 -1.600000e+000 5.000000e+000
      vertex   2.070000e+001 5.720000e+001 5.000000e+000
    endloop
  endfacet
endsolid
