solid ascii
  facet normal -1.000000e+000 -5.075305e-016 0.000000e+000
    outer loop
      vertex   5.500000e+000 7.000000e+000 0.000000e+000
      vertex   5.500000e+000 4.930381e-031 0.000000e+000
      vertex   5.500000e+000 7.000000e+000 3.500000e+000
    endloop
  endfacet
  facet normal -1.000000e+000 -5.075305e-016 0.000000e+000
    outer loop
      vertex   5.500000e+000 7.000000e+000 3.500000e+000
      vertex   5.500000e+000 4.930381e-031 0.000000e+000
      vertex   5.500000e+000 4.930381e-031 3.500000e+000
    endloop
  endfacet
  facet normal 0.000000e+000 -1.000000e+000 0.000000e+000
    outer loop
      vertex   3.450000e+000 7.000000e+000 0.000000e+000
      vertex   5.500000e+000 7.000000e+000 0.000000e+000
      vertex   3.450000e+000 7.000000e+000 3.500000e+000
    endloop
  endfacet
  facet normal 0.000000e+000 -1.000000e+000 0.000000e+000
    outer loop
      vertex   3.450000e+000 7.000000e+000 3.500000e+000
      vertex   5.500000e+000 7.000000e+000 0.000000e+000
      vertex   5.500000e+000 7.000000e+000 3.500000e+000
    endloop
  endfacet
  facet normal -1.000000e+000 8.074349e-016 0.000000e+000
    outer loop
      vertex   3.450000e+000 8.100000e+000 0.000000e+000
      vertex   3.450000e+000 7.000000e+000 0.000000e+000
      vertex   3.450000e+000 8.100000e+000 3.500000e+000
    endloop
  endfacet
  facet normal -1.000000e+000 8.074349e-016 0.000000e+000
    outer loop
      vertex   3.450000e+000 8.100000e+000 3.500000e+000
      vertex   3.450000e+000 7.000000e+000 0.000000e+000
      vertex   3.450000e+000 7.000000e+000 3.500000e+000
    endloop
  endfacet
  facet normal 0.000000e+000 1.000000e+000 -0.000000e+000
    outer loop
      vertex   6.600000e+000 8.100000e+000 0.000000e+000
      vertex   3.450000e+000 8.100000e+000 0.000000e+000
      vertex   6.600000e+000 8.100000e+000 3.500000e+000
    endloop
  endfacet
  facet normal 0.000000e+000 1.000000e+000 -0.000000e+000
    outer loop
      vertex   6.600000e+000 8.100000e+000 3.500000e+000
      vertex   3.450000e+000 8.100000e+000 0.000000e+000
      vertex   3.450000e+000 8.100000e+000 3.500000e+000
    endloop
  endfacet
  facet normal 1.000000e+000 6.757879e-016 0.000000e+000
    outer loop
      vertex   6.600000e+000 -1.100000e+000 0.000000e+000
      vertex   6.600000e+000 8.100000e+000 0.000000e+000
      vertex   6.600000e+000 -1.100000e+000 3.500000e+000
    endloop
  endfacet
  facet normal 1.000000e+000 6.757879e-016 -0.000000e+000
    outer loop
      vertex   6.600000e+000 -1.100000e+000 3.500000e+000
      vertex   6.600000e+000 8.100000e+000 0.000000e+000
      vertex   6.600000e+000 8.100000e+000 3.500000e+000
    endloop
  endfacet
  facet normal 1.940237e-012 -1.000000e+000 0.000000e+000
    outer loop
      vertex   -1.100000e+000 -1.100000e+000 0.000000e+000
      vertex   6.600000e+000 -1.100000e+000 0.000000e+000
      vertex   -1.100000e+000 -1.100000e+000 3.500000e+000
    endloop
  endfacet
  facet normal 1.940237e-012 -1.000000e+000 0.000000e+000
    outer loop
      vertex   -1.100000e+000 -1.100000e+000 3.500000e+000
      vertex   6.600000e+000 -1.100000e+000 0.000000e+000
      vertex   6.600000e+000 -1.100000e+000 3.500000e+000
    endloop
  endfacet
  facet normal -1.000000e+000 1.616605e-012 0.000000e+000
    outer loop
      vertex   -1.100000e+000 8.100000e+000 0.000000e+000
      vertex   -1.100000e+000 -1.100000e+000 0.000000e+000
      vertex   -1.100000e+000 8.100000e+000 3.500000e+000
    endloop
  endfacet
  facet normal -1.000000e+000 1.616605e-012 0.000000e+000
    outer loop
      vertex   -1.100000e+000 8.100000e+000 3.500000e+000
      vertex   -1.100000e+000 -1.100000e+000 0.000000e+000
      vertex   -1.100000e+000 -1.100000e+000 3.500000e+000
    endloop
  endfacet
  facet normal 0.000000e+000 1.000000e+000 -0.000000e+000
    outer loop
      vertex   2.050000e+000 8.100000e+000 0.000000e+000
      vertex   -1.100000e+000 8.100000e+000 0.000000e+000
      vertex   2.050000e+000 8.100000e+000 3.500000e+000
    endloop
  endfacet
  facet normal 0.000000e+000 1.000000e+000 -0.000000e+000
    outer loop
      vertex   2.050000e+000 8.100000e+000 3.500000e+000
      vertex   -1.100000e+000 8.100000e+000 0.000000e+000
      vertex   -1.100000e+000 8.100000e+000 3.500000e+000
    endloop
  endfacet
  facet normal 1.000000e+000 0.000000e+000 -0.000000e+000
    outer loop
      vertex   2.050000e+000 7.000000e+000 0.000000e+000
      vertex   2.050000e+000 8.100000e+000 0.000000e+000
      vertex   2.050000e+000 7.000000e+000 3.500000e+000
    endloop
  endfacet
  facet normal 1.000000e+000 -0.000000e+000 0.000000e+000
    outer loop
      vertex   2.050000e+000 7.000000e+000 3.500000e+000
      vertex   2.050000e+000 8.100000e+000 0.000000e+000
      vertex   2.050000e+000 8.100000e+000 3.500000e+000
    endloop
  endfacet
  facet normal 0.000000e+000 -1.000000e+000 0.000000e+000
    outer loop
      vertex   -4.440892e-015 7.000000e+000 0.000000e+000
      vertex   2.050000e+000 7.000000e+000 0.000000e+000
      vertex   -4.440892e-015 7.000000e+000 3.500000e+000
    endloop
  endfacet
  facet normal 0.000000e+000 -1.000000e+000 0.000000e+000
    outer loop
      vertex   -4.440892e-015 7.000000e+000 3.500000e+000
      vertex   2.050000e+000 7.000000e+000 0.000000e+000
      vertex   2.050000e+000 7.000000e+000 3.500000e+000
    endloop
  endfacet
  facet normal 1.000000e+000 6.344132e-016 0.000000e+000
    outer loop
      vertex   0.000000e+000 0.000000e+000 0.000000e+000
      vertex   -4.440892e-015 7.000000e+000 0.000000e+000
      vertex   0.000000e+000 0.000000e+000 3.500000e+000
    endloop
  endfacet
  facet normal 1.000000e+000 6.344132e-016 -0.000000e+000
    outer loop
      vertex   0.000000e+000 0.000000e+000 3.500000e+000
      vertex   -4.440892e-015 7.000000e+000 0.000000e+000
      vertex   -4.440892e-015 7.000000e+000 3.500000e+000
    endloop
  endfacet
  facet normal -8.964328e-032 1.000000e+000 0.000000e+000
    outer loop
      vertex   5.500000e+000 4.930381e-031 0.000000e+000
      vertex   0.000000e+000 0.000000e+000 0.000000e+000
      vertex   5.500000e+000 4.930381e-031 3.500000e+000
    endloop
  endfacet
  facet normal -8.964328e-032 1.000000e+000 0.000000e+000
    outer loop
      vertex   5.500000e+000 4.930381e-031 3.500000e+000
      vertex   0.000000e+000 0.000000e+000 0.000000e+000
      vertex   0.000000e+000 0.000000e+000 3.500000e+000
    endloop
  endfacet
  facet normal 0.000000e+000 -0.000000e+000 -1.000000e+000
    outer loop
      vertex   -4.440892e-015 7.000000e+000 0.000000e+000
      vertex   0.000000e+000 0.000000e+000 0.000000e+000
      vertex   -1.100000e+000 -1.100000e+000 0.000000e+000
    endloop
  endfacet
  facet normal 0.000000e+000 -0.000000e+000 -1.000000e+000
    outer loop
      vertex   -1.100000e+000 8.100000e+000 0.000000e+000
      vertex   -4.440892e-015 7.000000e+000 0.000000e+000
      vertex   -1.100000e+000 -1.100000e+000 0.000000e+000
    endloop
  endfacet
  facet normal 0.000000e+000 -0.000000e+000 -1.000000e+000
    outer loop
      vertex   -1.100000e+000 8.100000e+000 0.000000e+000
      vertex   2.050000e+000 8.100000e+000 0.000000e+000
      vertex   -4.440892e-015 7.000000e+000 0.000000e+000
    endloop
  endfacet
  facet normal 0.000000e+000 0.000000e+000 -1.000000e+000
    outer loop
      vertex   -4.440892e-015 7.000000e+000 0.000000e+000
      vertex   2.050000e+000 8.100000e+000 0.000000e+000
      vertex   2.050000e+000 7.000000e+000 0.000000e+000
    endloop
  endfacet
  facet normal -0.000000e+000 -0.000000e+000 -1.000000e+000
    outer loop
      vertex   5.500000e+000 7.000000e+000 0.000000e+000
      vertex   6.600000e+000 -1.100000e+000 0.000000e+000
      vertex   5.500000e+000 4.930381e-031 0.000000e+000
    endloop
  endfacet
  facet normal 0.000000e+000 0.000000e+000 -1.000000e+000
    outer loop
      vertex   5.500000e+000 7.000000e+000 0.000000e+000
      vertex   6.600000e+000 8.100000e+000 0.000000e+000
      vertex   6.600000e+000 -1.100000e+000 0.000000e+000
    endloop
  endfacet
  facet normal 0.000000e+000 0.000000e+000 -1.000000e+000
    outer loop
      vertex   5.500000e+000 7.000000e+000 0.000000e+000
      vertex   3.450000e+000 8.100000e+000 0.000000e+000
      vertex   6.600000e+000 8.100000e+000 0.000000e+000
    endloop
  endfacet
  facet normal 0.000000e+000 0.000000e+000 -1.000000e+000
    outer loop
      vertex   5.500000e+000 7.000000e+000 0.000000e+000
      vertex   3.450000e+000 7.000000e+000 0.000000e+000
      vertex   3.450000e+000 8.100000e+000 0.000000e+000
    endloop
  endfacet
  facet normal -0.000000e+000 0.000000e+000 -1.000000e+000
    outer loop
      vertex   6.600000e+000 -1.100000e+000 0.000000e+000
      vertex   -1.100000e+000 -1.100000e+000 0.000000e+000
      vertex   5.500000e+000 4.930381e-031 0.000000e+000
    endloop
  endfacet
  facet normal -0.000000e+000 0.000000e+000 -1.000000e+000
    outer loop
      vertex   5.500000e+000 4.930381e-031 0.000000e+000
      vertex   -1.100000e+000 -1.100000e+000 0.000000e+000
      vertex   0.000000e+000 0.000000e+000 0.000000e+000
    endloop
  endfacet
  facet normal 0.000000e+000 0.000000e+000 1.000000e+000
    outer loop
      vertex   5.500000e+000 7.000000e+000 3.500000e+000
      vertex   5.500000e+000 4.930381e-031 3.500000e+000
      vertex   6.600000e+000 -1.100000e+000 3.500000e+000
    endloop
  endfacet
  facet normal 0.000000e+000 0.000000e+000 1.000000e+000
    outer loop
      vertex   6.600000e+000 8.100000e+000 3.500000e+000
      vertex   5.500000e+000 7.000000e+000 3.500000e+000
      vertex   6.600000e+000 -1.100000e+000 3.500000e+000
    endloop
  endfacet
  facet normal 0.000000e+000 0.000000e+000 1.000000e+000
    outer loop
      vertex   6.600000e+000 8.100000e+000 3.500000e+000
      vertex   3.450000e+000 8.100000e+000 3.500000e+000
      vertex   5.500000e+000 7.000000e+000 3.500000e+000
    endloop
  endfacet
  facet normal 0.000000e+000 0.000000e+000 1.000000e+000
    outer loop
      vertex   5.500000e+000 7.000000e+000 3.500000e+000
      vertex   3.450000e+000 8.100000e+000 3.500000e+000
      vertex   3.450000e+000 7.000000e+000 3.500000e+000
    endloop
  endfacet
  facet normal -0.000000e+000 0.000000e+000 1.000000e+000
    outer loop
      vertex   -4.440892e-015 7.000000e+000 3.500000e+000
      vertex   -1.100000e+000 -1.100000e+000 3.500000e+000
      vertex   0.000000e+000 0.000000e+000 3.500000e+000
    endloop
  endfacet
  facet normal 0.000000e+000 0.000000e+000 1.000000e+000
    outer loop
      vertex   -4.440892e-015 7.000000e+000 3.500000e+000
      vertex   -1.100000e+000 8.100000e+000 3.500000e+000
      vertex   -1.100000e+000 -1.100000e+000 3.500000e+000
    endloop
  endfacet
  facet normal 0.000000e+000 -0.000000e+000 1.000000e+000
    outer loop
      vertex   -4.440892e-015 7.000000e+000 3.500000e+000
      vertex   2.050000e+000 8.100000e+000 3.500000e+000
      vertex   -1.100000e+000 8.100000e+000 3.500000e+000
    endloop
  endfacet
  facet normal 0.000000e+000 0.000000e+000 1.000000e+000
    outer loop
      vertex   -4.440892e-015 7.000000e+000 3.500000e+000
      vertex   2.050000e+000 7.000000e+000 3.500000e+000
      vertex   2.050000e+000 8.100000e+000 3.500000e+000
    endloop
  endfacet
  facet normal 0.000000e+000 -0.000000e+000 1.000000e+000
    outer loop
      vertex   -1.100000e+000 -1.100000e+000 3.500000e+000
      vertex   6.600000e+000 -1.100000e+000 3.500000e+000
      vertex   0.000000e+000 0.000000e+000 3.500000e+000
    endloop
  endfacet
  facet normal -0.000000e+000 -0.000000e+000 1.000000e+000
    outer loop
      vertex   0.000000e+000 0.000000e+000 3.500000e+000
      vertex   6.600000e+000 -1.100000e+000 3.500000e+000
      vertex   5.500000e+000 4.930381e-031 3.500000e+000
    endloop
  endfacet
endsolid
